<?xml version="1.0" encoding="iso-8859-1"?>
<!-- Generator: Adobe Illustrator 19.0.0, SVG Export Plug-In . SVG Version: 6.00 Build 0)  -->
<svg version="1.1" id="Layer_1" xmlns="http://www.w3.org/2000/svg" xmlns:xlink="http://www.w3.org/1999/xlink" x="0px" y="0px"
	 viewBox="0 0 491.52 491.52" style="enable-background:new 0 0 491.52 491.52;" xml:space="preserve">
<g>
	<g>
		<g>
			<polygon points="268.513,307.2 245.76,266.24 223.007,307.2 172.933,302.203 204.8,337.961 172.933,384.573 223.007,380.027 
				245.76,430.08 268.513,380.027 318.587,384.573 286.72,337.633 318.587,302.653 			"/>
			<path d="M348.16,245.094V40.96h20.48c11.311,0,20.48-9.169,20.48-20.48S379.951,0,368.64,0h-40.96H163.84h-40.96
				c-11.311,0-20.48,9.169-20.48,20.48s9.169,20.48,20.48,20.48h20.48v206.879c-25.334,25.856-40.96,61.259-40.96,100.321
				c0,79.182,64.178,143.36,143.36,143.36s143.36-64.178,143.36-143.36C389.12,304.038,372.983,269.315,348.16,245.094z
				 M307.2,40.96v176.631c-19.144-8.438-40.181-12.791-61.44-12.791c-1.308,0-2.611,0.02-3.91,0.055
				c-0.315,0.009-0.628,0.025-0.942,0.036c-1.005,0.033-2.009,0.073-3.009,0.127c-0.294,0.016-0.587,0.038-0.88,0.056
				c-1.046,0.063-2.089,0.134-3.128,0.22c-0.208,0.017-0.415,0.037-0.623,0.055c-1.162,0.1-2.319,0.214-3.473,0.342
				c-0.076,0.008-0.152,0.017-0.228,0.026c-16.032,1.802-31.262,6.243-45.247,12.886V40.96H307.2z M245.76,450.56
				c-56.56,0-102.4-45.84-102.4-102.4c0-29.534,12.504-56.14,32.501-74.827c0.563-0.414,1.119-0.849,1.657-1.332
				c16.363-14.683,36.739-23.731,58.63-25.788c0.099-0.009,0.199-0.018,0.299-0.027c1.467-0.133,2.94-0.237,4.42-0.307
				c0.133-0.006,0.266-0.009,0.399-0.015c1.492-0.065,2.99-0.104,4.493-0.104c21.614,0,49.14,9.008,68.896,25.288
				c1.041,0.858,2.126,1.576,3.237,2.191c18.344,17.299,30.267,42.509,30.267,74.921C348.16,404.72,302.32,450.56,245.76,450.56z"/>
		</g>
	</g>
</g>
<g>
</g>
<g>
</g>
<g>
</g>
<g>
</g>
<g>
</g>
<g>
</g>
<g>
</g>
<g>
</g>
<g>
</g>
<g>
</g>
<g>
</g>
<g>
</g>
<g>
</g>
<g>
</g>
<g>
</g>
</svg>
