<svg xmlns="http://www.w3.org/2000/svg" viewBox="0 0 406 96.667">
  <path fill="#878787" d="M233.367 80.834v-.002h-2.918c-.005 0-.01-.001-.015-.001-.289 0-.537.176-.647.426l-.001-.001c-1.627 3.812-5.372 6.48-9.734 6.48-5.855 0-10.601-4.805-10.601-10.733 0-5.927 4.746-10.733 10.601-10.733 4.361 0 8.107 2.668 9.733 6.479l.002-.001c.11.25.356.424.643.426v.001h2.903c.388-.004.702-.323.702-.717 0-.099-.02-.194-.056-.28-1.98-5.861-7.467-10.075-13.927-10.075-8.128 0-14.718 6.671-14.718 14.9 0 8.23 6.59 14.901 14.718 14.901 6.46 0 11.947-4.215 13.927-10.075.036-.086.056-.181.056-.28 0-.382-.296-.694-.668-.715m27.685-17.821c0-.404-.324-.732-.723-.732-.034 0-.067.005-.1.01-.001-.004-.004-.007-.005-.01h-2.555v.001c-.375.01-.676.309-.7.684 0 0-.003.001-.005 0v11.663h-12.38V63.041c-.001 0-.002 0-.003.001.001-.01.003-.019.003-.029 0-.397-.312-.717-.7-.73v-.002h-2.656.001-.009c-.383 0-.693.302-.719.683-.001-.001-.003 0-.004 0V91.03c.002.001.005.003.007.004.04.367.343.654.716.654.013 0 .025-.004.038-.005l.002.005h2.585v-.002c.005 0 .011.002.016.002.384 0 .694-.304.719-.686l.004-.001V79.015h12.38v12.032c.003-.001.006.002.006.002.049.359.349.639.717.639.004 0 .008-.001.012-.002v.002h2.563l.001-.007c.022.002.043.007.066.007.374 0 .677-.289.715-.656.003 0 .005-.002.008-.001V63.013zm58.28 0c0-.404-.324-.732-.723-.732-.014 0-.028.003-.041.004l-.001-.002v-.002h-2.637l-.002.002c-.013.001-.026-.002-.039-.002-.398 0-.721.326-.723.728v20.122l-12.973-20.509h-.002c-.129-.204-.354-.341-.611-.341-.017 0-.033.004-.049.005l-.002-.005h-2.994c-.373 0-.677.286-.716.653-.003-.001-.005 0-.008 0v28.052s.002.001.003.001c.017.389.331.701.72.701.006 0 .01-.002.015-.002h2.686c.007 0 .013.002.019.002.38 0 .688-.299.718-.676h.006V70.764l12.958 20.559h.001c.121.209.341.353.596.361v.002h.011c.005 0 .01.002.015.002s.01-.002.015-.002h2.992v-.002c.014 0 .028.004.043.004.396 0 .716-.323.722-.722h.001V63.021l-.001-.001.001-.007zm30.166 0c0-.404-.324-.732-.723-.732-.014 0-.027.003-.041.004l-.001-.003v-.001h-2.638l-.001.002c-.013.001-.026-.002-.039-.002-.398 0-.721.326-.723.728v20.122l-12.973-20.509h-.002c-.129-.204-.354-.341-.611-.341-.017 0-.032.004-.049.005l-.002-.005H328.7c-.372 0-.675.286-.715.653h-.008v28.052s.002.001.003.001c.017.389.331.701.72.701.006 0 .01-.002.015-.002h2.686c.007 0 .013.002.019.002.38 0 .688-.299.718-.676h.006V70.764l12.958 20.559h.001c.121.209.341.353.596.361v.002h.011c.006 0 .01.002.015.002s.01-.002.015-.002h2.992l-.001-.003c.015.001.029.005.044.005.396 0 .716-.323.722-.722h.001V63.013zm-57.133 27.746c.002 0 .004-.001.005-.002l-.026-.067c-.004-.01-.007-.02-.011-.03l-10.852-27.908c-.104-.275-.365-.471-.673-.471 0 0-.002.001-.003.001l-.001-.001h-2.532v.001c-.306.009-.563.208-.661.485h-.001L266.765 90.66c-.005.01-.008.02-.012.031l-.025.063c.002.001.003.002.003.002-.016.065-.029.13-.029.2 0 .404.324.732.723.732.003 0 .007-.001.01-.001v.001h2.753c-.001-.001-.001-.002-.001-.002.009-.001.018.002.027.002.332 0 .608-.227.694-.535l2.653-6.825h11.975l2.654 6.825c.085.308.362.535.693.535 0 0 .006-.001.01-.001v.001h2.753l.001-.003c.008.001.016.003.025.003.399 0 .723-.328.723-.732 0-.069-.012-.134-.03-.197m-17.187-10.59l4.37-11.241 4.371 11.241h-8.741zm99.2-13.869c.001-.001.002 0 .002 0 .367 0 .664-.287.691-.65.001 0 .003-.002.005-.002v-2.631l-.002-.001c-.001-.01.002-.021.002-.032 0-.388-.311-.702-.694-.702h-16.36v.001c-.377.009-.679.318-.679.701 0 .014.003.026.004.039-.002-.001-.003-.001-.004-.001v27.999l.004.002c.019.369.318.663.687.665h16.367v-.002c.374-.011.675-.319.675-.701l-.001-.007.001-.001v-2.978c-.002-.387-.312-.699-.694-.7h-12.735v-8.508h12.398l.002-.002c.006 0 .012.002.018.002.383 0 .693-.313.694-.7h.001v-2.594l-.002.001c0-.008.002-.015.002-.023 0-.388-.311-.703-.695-.703l-.002.001v-.001h-12.416V66.3h12.731zm26.177 21.686c0-.379-.304-.687-.678-.687-.004 0-.007.001-.007.001l-.004-.001h-12.74V62.98h-.001s.001-.007.001-.012c0-.379-.303-.687-.678-.687-.006 0-.011.001-.016.002v-.002h-2.943l-.001.001c-.351.007-.634.283-.661.633 0 0-.003.001-.005.001v28.132c.002 0 .004.001.004.001.026.353.31.632.664.638v.001h16.323l.002-.007c.021.003.041.007.062.007.366 0 .662-.294.676-.662h.002v-2.991h-.003c0-.016.003-.032.003-.049M20.332 61.761c-8.222 0-14.887 6.748-14.887 15.072 0 8.323 6.665 15.071 14.887 15.071s14.887-6.748 14.887-15.071c0-8.324-6.665-15.072-14.887-15.072m0 23.257c-4.465 0-8.085-3.665-8.085-8.185 0-4.521 3.62-8.186 8.085-8.186 4.465 0 8.085 3.665 8.085 8.186 0 4.52-3.62 8.185-8.085 8.185m38.99.386c0-.431-.345-.781-.772-.781-.005 0-.01.001-.015.001v-.001H47.149V63.048h-.004c0-.014.004-.027.004-.04 0-.432-.346-.781-.772-.781h-5.468v.001c-.419.008-.757.354-.757.78 0 .01.003.02.003.03h-.002l-.001 27.677c.003.43.347.777.772.777H58.55c.424 0 .766-.345.771-.772h.001v-5.301l-.001-.001c0-.005.001-.009.001-.014m26.325-21.993l-.002-.001c.07-.118.113-.255.113-.402 0-.335-.208-.617-.498-.729.002-.011.001-.022.007-.031-.017.005-.032.012-.048.018-.074-.024-.151-.04-.232-.04-.027 0-.051.005-.077.008h-6.141c-.026-.003-.05-.008-.077-.008-.299 0-.555.174-.683.426l-.001-.001-6.024 9.737-6.009-9.712c-.004.003-.009.005-.012.007-.122-.269-.389-.457-.701-.457-.026 0-.051.005-.076.008h-6.131c-.026-.003-.051-.008-.077-.008-.427 0-.772.35-.772.782 0 .075.014.147.034.216-.003.001-.004.003-.007.004-.003.008-.008.016-.011.024l.098.159c.01.016.019.032.029.047L68.474 79.83v10.935s.001 0 .002-.001c0 .005-.002.01-.002.015 0 .432.346.782.772.782.011 0 .022-.003.032-.003v.003h5.431v-.001c.004 0 .008.001.012.001.426 0 .772-.35.772-.782 0-.013-.003-.025-.004-.037l.004-.002V79.83l10.133-16.385s.001-.002.002-.003l.019-.031zm79.311 4.523l-.001-.006.001-.001v-4.83c-.003 0-.005-.001-.008-.002.003-.026.008-.052.008-.08 0-.431-.345-.78-.772-.78-.019 0-.037.004-.056.005 0 0 .001-.004.001-.005h-14.979c-.426 0-.771.349-.771.78 0 .011.003.021.003.031v4.857c0 .011-.003.021-.003.031 0 .431.345.781.771.781.004 0 .008-.001.012-.001v.001h3.908v16.448h-3.92c-.426 0-.771.349-.771.781 0 .02.004.04.006.06h-.006v4.749h.002c0 .009-.002.017-.002.027 0 .431.345.781.771.781.004 0 .007-.001.011-.001v.001h15.055v-.003c.401-.029.72-.364.72-.778v-4.787c-.001 0-.003 0-.004-.001.001-.016.004-.032.004-.048 0-.432-.345-.781-.771-.781-.01 0-.019.002-.029.003l-.001-.003h-3.823V68.715h3.829s-.001-.003-.001-.004c.015 0 .029.004.044.004.427 0 .772-.35.772-.781m-29.79-5.469c-3.971-.394-8.029-.213-12.053-.226-.012-.001-.024-.004-.036-.004-.427 0-.772.35-.772.781 0 .021.004.041.006.061l-.006-.003V90.79h.001c.005.42.337.759.751.77v.001h5.384c.001-.002.001-.004.002-.006.023.002.045.006.068.006.423 0 .766-.345.771-.772h.001v-7.926c1.504 0 2.846.035 4.186-.007 5.784-.181 9.454-3.663 10.034-9.491.543-5.441-2.998-10.371-8.337-10.9m1.428 10.518c-.12 1.627-1.152 2.848-2.623 3.075-.34.053-.69.046-1.035.048-1.168.005-2.337.001-3.599.001v-6.993c1.711.086 3.403.027 5.043.295 1.494.244 2.343 1.831 2.214 3.574m-20.529-9.967c0-.431-.345-.781-.772-.781-.014 0-.028.003-.042.004 0 0 .001-.003.001-.004h-4.377v.002c-.286.015-.529.185-.651.429-.003-.002-.007-.003-.011-.005l-7.288 10.906-7.316-10.947c-.001.002-.004.003-.006.004-.133-.232-.38-.389-.664-.389-.012 0-.022.003-.034.003.001-.001 0-.002.001-.003h-4.331v.002c-.006-.001-.012-.002-.019-.002-.426 0-.771.35-.771.781 0 .008.002.016.002.025l-.002-.001v27.74c0 .43.342.778.766.781-.001.001 0 .002 0 .002l5.516.001s-.001-.002-.002-.003v-.007c.024.002.047.007.071.007.425 0 .768-.346.771-.775h.001V76.957l3.839 5.989s.001-.001.002-.003c.135.227.378.381.659.381.008 0 .016-.003.025-.003 0 0 .001.002.001.003h2.963v-.003c.014-.001.027.003.042.003.278 0 .521-.152.656-.376.002.001.004.001.006.002l3.841-5.993v13.815l.001-.001-.001.009c0 .418.325.757.733.777v.007h5.569c0-.003-.001-.005-.001-.008.017.001.033.005.05.005.422 0 .764-.342.771-.768h.001V63.06c-.002.001-.003.002-.004.002 0-.016.004-.03.004-.046m81.95 18.136c-.126-.256-.385-.434-.687-.434h-5.809c-.265 0-.498.135-.636.341-.004.006-.007.012-.01.018-1.417 2.359-3.966 3.941-6.893 3.941-4.465 0-8.085-3.665-8.085-8.185 0-4.521 3.62-8.186 8.085-8.186 2.976 0 5.566 1.635 6.967 4.06.006.009.012.019.017.029.139.204.371.338.635.338h5.766c.426 0 .77-.349.77-.779 0-.046-.006-.091-.014-.135-.012-.075-.037-.145-.069-.21-2.004-5.925-7.54-10.189-14.072-10.189-8.221 0-14.886 6.748-14.886 15.072 0 8.324 6.665 15.072 14.886 15.072 6.483 0 11.988-4.199 14.031-10.054.033-.065.059-.134.073-.209.008-.047.014-.095.014-.144 0-.047-.006-.092-.014-.136-.022-.07-.045-.14-.069-.21"/>
  <path fill="#FCB131" d="M201.636 36.12c0 9.035-7.325 16.36-16.36 16.36s-16.36-7.325-16.36-16.36c0-9.036 7.325-16.36 16.36-16.36s16.36 7.325 16.36 16.36zm-16.36-13.634c-7.53 0-13.634 6.104-13.634 13.634s6.104 13.634 13.634 13.634S198.91 43.65 198.91 36.12s-6.104-13.634-13.634-13.634z"/>
  <path fill="#00A651" d="M237.084 36.12c0 9.035-7.325 16.36-16.36 16.36-9.036 0-16.36-7.325-16.36-16.36 0-9.036 7.325-16.36 16.36-16.36s16.36 7.325 16.36 16.36zm-16.36-13.634c-7.53 0-13.634 6.104-13.634 13.634s6.104 13.634 13.634 13.634 13.634-6.104 13.634-13.634c-.001-7.53-6.105-13.634-13.634-13.634z"/>
  <path fill="#0081C8" d="M183.913 21.122c0 9.036-7.325 16.36-16.36 16.36s-16.36-7.325-16.36-16.36c0-9.036 7.325-16.36 16.36-16.36s16.36 7.325 16.36 16.36zm-16.36-13.633c-7.53 0-13.634 6.104-13.634 13.634s6.104 13.634 13.634 13.634 13.634-6.104 13.634-13.634c-.001-7.53-6.105-13.634-13.634-13.634z"/>
  <path d="M219.36 21.122c0 9.036-7.325 16.36-16.36 16.36-9.036 0-16.36-7.325-16.36-16.36 0-9.036 7.325-16.36 16.36-16.36 9.036 0 16.36 7.325 16.36 16.36zM203 7.489c-7.53 0-13.634 6.104-13.634 13.634S195.47 34.757 203 34.757s13.634-6.104 13.634-13.634S210.53 7.489 203 7.489z"/>
  <path fill="#EE334E" d="M254.808 21.122c0 9.036-7.325 16.36-16.36 16.36-9.036 0-16.36-7.325-16.36-16.36 0-9.036 7.325-16.36 16.36-16.36s16.36 7.325 16.36 16.36zM238.447 7.489c-7.53 0-13.634 6.104-13.634 13.634s6.104 13.634 13.634 13.634 13.634-6.104 13.634-13.634-6.104-13.634-13.634-13.634z"/>
  <path fill="#FCB131" d="M168.981 37.587c-.043-.483-.065-.973-.065-1.467 0-.55.027-1.093.08-1.629l2.824-.578c-.117.718-.178 1.456-.178 2.207 0 .327.012.652.034.973l-2.695.494z"/>
  <path fill="#00A651" d="M204.419 37.481c-.037-.449-.056-.903-.056-1.361 0-.519.024-1.033.071-1.54l2.822-.6c-.11.697-.167 1.412-.167 2.14 0 .301.01.599.029.895l-1.232.638-1.467-.172zm20.632-14.293c-.952-.318-1.951-.534-2.983-.636l-.185-1.441.179-1.298c.98.079 1.935.245 2.859.489l.13 2.886z"/>
  <path fill="#FCB131" d="M189.693 23.218c-1.014-.347-2.082-.578-3.188-.677l-1.229-2.781c.384 0 .766.013 1.143.039 1.087.075 2.145.256 3.163.533l.111 2.886z"/>
</svg>